<?xml version="1.0" encoding="UTF-8"?>
<svg id="Layer_1" xmlns="http://www.w3.org/2000/svg" version="1.1" viewBox="0 0 515.99 109.33">
  <!-- Generator: Adobe Illustrator 29.6.0, SVG Export Plug-In . SVG Version: 2.1.1 Build 207)  -->
  <defs>
    <style>
      .st0 {
        fill: #9df904;
      }

      .st1 {
        fill: #1f299b;
      }

      .st2 {
        fill: #fff;
      }
    </style>
  </defs>
  <g>
    <path class="st2" d="M209.8,70.41v-32.75h-12.97v-9.47h37.82v9.47h-12.91v32.75h-11.94Z"/>
    <path class="st2" d="M251.12,70.41h-11.94V28.18h11.94v42.22ZM268.2,53.94h-17.98v-9.89h17.98v9.89ZM267.35,28.18h11.94v42.22h-11.94V28.18Z"/>
    <path class="st2" d="M299.56,61.12h22.08v9.29h-33.84V28.18h33.06v9.29h-21.29v23.65ZM298.72,44.53h19.6v8.87h-19.6v-8.87Z"/>
    <path class="st2" d="M345.89,70.41V28.18h9.83l17.43,28.71h-5.19l17.07-28.71h9.83l.06,42.22h-10.98l-.12-25.52h1.87l-12.73,21.35h-5.31l-13.09-21.35h2.29v25.52h-10.98Z"/>
    <path class="st2" d="M403.43,70.41V28.18h11.94v42.22h-11.94Z"/>
    <path class="st2" d="M423.88,70.41V28.18h9.83l23.22,28.11h-4.65v-28.11h11.7v42.22h-9.83l-23.28-28.11h4.65v28.11h-11.64Z"/>
    <path class="st2" d="M472.5,70.41V28.18h19.97c4.62,0,8.71.86,12.25,2.59,3.54,1.73,6.3,4.16,8.29,7.3,1.99,3.14,2.99,6.86,2.99,11.16s-1,8.09-2.99,11.25c-1.99,3.16-4.76,5.6-8.29,7.33-3.54,1.73-7.62,2.59-12.25,2.59h-19.97ZM484.44,60.87h7.42c2.45,0,4.57-.46,6.36-1.39s3.19-2.26,4.19-4.01c1-1.75,1.51-3.81,1.51-6.18s-.5-4.53-1.51-6.24c-1.01-1.71-2.4-3.03-4.19-3.95s-3.91-1.39-6.36-1.39h-7.42v23.16Z"/>
  </g>
  <g>
    <path class="st2" d="M199.91,108.1v-22.43h8.39c1.9,0,3.53.3,4.9.91,1.37.61,2.42,1.48,3.16,2.63s1.11,2.53,1.11,4.15-.37,2.94-1.11,4.09-1.79,2.02-3.16,2.64c-1.37.62-3,.93-4.9.93h-7.08l1.06-1.12v8.2h-2.37ZM202.28,100.09l-1.06-1.15h7.02c2.24,0,3.95-.49,5.11-1.46,1.16-.97,1.75-2.34,1.75-4.12s-.58-3.18-1.75-4.16c-1.16-.98-2.87-1.47-5.11-1.47h-7.02l1.06-1.12v13.49Z"/>
    <path class="st2" d="M242.53,108.1v-22.43h2.37v20.38h12.56v2.05h-14.93Z"/>
    <path class="st2" d="M279.88,108.1l10.25-22.43h2.34l10.25,22.43h-2.5l-9.42-21.05h.96l-9.42,21.05h-2.47ZM283.91,102.11l.71-1.92h13.04l.71,1.92h-14.45Z"/>
    <path class="st2" d="M331.42,108.1v-20.38h-7.88v-2.05h18.14v2.05h-7.88v20.38h-2.37Z"/>
    <path class="st2" d="M368.59,108.1h-2.37v-22.43h15.38v2.05h-13.01v20.38ZM368.33,96.53h11.86v2.05h-11.86v-2.05Z"/>
    <path class="st2" d="M415.23,108.29c-1.69,0-3.25-.28-4.69-.85-1.44-.57-2.69-1.37-3.75-2.4-1.06-1.04-1.88-2.24-2.47-3.62-.59-1.38-.88-2.89-.88-4.53s.29-3.16.88-4.53c.59-1.38,1.41-2.58,2.47-3.62,1.06-1.04,2.3-1.84,3.73-2.4,1.43-.57,3-.85,4.71-.85s3.25.28,4.68.85c1.43.57,2.68,1.36,3.73,2.39,1.06,1.03,1.88,2.23,2.47,3.62.59,1.39.88,2.91.88,4.55s-.29,3.16-.88,4.55c-.59,1.39-1.41,2.59-2.47,3.62-1.06,1.03-2.3,1.82-3.73,2.39-1.43.57-2.99.85-4.68.85ZM415.23,106.18c1.35,0,2.59-.23,3.73-.69,1.14-.46,2.14-1.11,2.98-1.95s1.5-1.83,1.97-2.95c.47-1.12.7-2.36.7-3.7s-.24-2.58-.7-3.7c-.47-1.12-1.13-2.1-1.97-2.95s-1.84-1.5-2.98-1.95-2.39-.69-3.73-.69-2.6.23-3.75.69c-1.15.46-2.16,1.11-3.01,1.95-.86.84-1.52,1.83-1.99,2.95-.47,1.12-.71,2.36-.71,3.7s.24,2.55.71,3.68c.47,1.13,1.13,2.12,1.99,2.96.85.84,1.86,1.5,3.01,1.95,1.15.46,2.4.69,3.75.69Z"/>
    <path class="st2" d="M447.56,108.1v-22.43h8.39c1.9,0,3.54.3,4.9.91,1.37.61,2.42,1.48,3.16,2.63.74,1.14,1.1,2.53,1.1,4.15s-.37,2.94-1.1,4.09c-.74,1.14-1.79,2.02-3.16,2.63s-3,.91-4.9.91h-7.08l1.06-1.09v8.2h-2.37ZM449.94,100.09l-1.06-1.12h7.02c2.24,0,3.95-.49,5.11-1.47s1.75-2.36,1.75-4.13-.58-3.18-1.75-4.16-2.87-1.47-5.11-1.47h-7.02l1.06-1.12v13.49ZM462.88,108.1l-5.77-8.14h2.56l5.8,8.14h-2.59Z"/>
    <path class="st2" d="M486.18,108.1v-22.43h1.96l10.25,17.49h-1.03l10.16-17.49h1.96v22.43h-2.28v-18.87h.55l-9.36,16.02h-1.12l-9.42-16.02h.61v18.87h-2.28Z"/>
  </g>
  <polygon class="st1" points="86.78 109.33 63.59 109.33 63.59 23.19 23.19 23.19 23.19 109.33 0 109.33 0 0 86.78 0 86.78 109.33"/>
  <path class="st0" d="M178.51,109.33h-23.19V43.39c0-11.14-9.06-20.2-20.2-20.2s-20.2,9.06-20.2,20.2v65.94h-23.19V43.39C91.73,19.46,111.2,0,135.12,0s43.39,19.46,43.39,43.39v65.94Z"/>
</svg>